<svg xmlns="http://www.w3.org/2000/svg" viewBox="0 0 500 500" width="500" height="500">
  <!-- Main chip square -->
  <rect x="130" y="130" width="240" height="240" rx="30" ry="30" fill="#fde68a" stroke="#000" stroke-width="10"/>
  
  <!-- Brain inside chip -->
  <path d="M250,170 C220,170 200,190 200,220 C200,235 210,250 220,260 C215,270 210,280 210,290 C210,320 235,340 260,340 C285,340 310,320 310,290 C310,280 305,270 300,260 C310,250 320,235 320,220 C320,190 300,170 270,170 L250,170 Z" fill="#f9a8a9" stroke="#000" stroke-width="8"/>
  
  <!-- Brain details -->
  <path d="M250,170 L250,340" stroke="#000" stroke-width="6" fill="none"/>
  <path d="M250,230 L270,210" stroke="#000" stroke-width="6" fill="none"/>
  <path d="M250,260 L230,240" stroke="#000" stroke-width="6" fill="none"/>
  <path d="M250,290 L270,270" stroke="#000" stroke-width="6" fill="none"/>
  
  <!-- Connecting lines -->
  <!-- Top -->
  <line x1="250" y1="50" x2="250" y2="130" stroke="#000" stroke-width="10"/>
  <line x1="190" y1="50" x2="190" y2="130" stroke="#000" stroke-width="10"/>
  <line x1="310" y1="50" x2="310" y2="130" stroke="#000" stroke-width="10"/>
  
  <!-- Bottom -->
  <line x1="250" y1="370" x2="250" y2="450" stroke="#000" stroke-width="10"/>
  <line x1="190" y1="370" x2="190" y2="450" stroke="#000" stroke-width="10"/>
  <line x1="310" y1="370" x2="310" y2="450" stroke="#000" stroke-width="10"/>
  
  <!-- Left -->
  <line x1="50" y1="250" x2="130" y2="250" stroke="#000" stroke-width="10"/>
  <line x1="50" y1="190" x2="130" y2="190" stroke="#000" stroke-width="10"/>
  <line x1="50" y1="310" x2="130" y2="310" stroke="#000" stroke-width="10"/>
  
  <!-- Right -->
  <line x1="370" y1="250" x2="450" y2="250" stroke="#000" stroke-width="10"/>
  <line x1="370" y1="190" x2="450" y2="190" stroke="#000" stroke-width="10"/>
  <line x1="370" y1="310" x2="450" y2="310" stroke="#000" stroke-width="10"/>
  
  <!-- Circular nodes -->
  <circle cx="250" cy="50" r="20" fill="#a8d8d0" stroke="#000" stroke-width="8"/>
  <circle cx="250" cy="450" r="20" fill="#a8d8d0" stroke="#000" stroke-width="8"/>
  <circle cx="50" cy="250" r="20" fill="#a8d8d0" stroke="#000" stroke-width="8"/>
  <circle cx="450" cy="250" r="20" fill="#a8d8d0" stroke="#000" stroke-width="8"/>
</svg> 